<svg xmlns="http://www.w3.org/2000/svg" width="123" height="33" viewBox="0 0 123 33"><path d="M23.61,8.75h-8.5V32.33H8.5V8.75H0V2.61H23.61Z" fill="blue"/><path d="M23.61,22.38V8.75H30v12.9C30,25,31.76,27,34.71,27s4.68-2.05,4.68-5.36V8.75h6.38V22.38C45.77,28.74,41.38,33,34.71,33S23.61,28.74,23.61,22.38Z" fill="blue"/><path d="M51.15.68h6.37V32.33H51.15Z" fill="blue"/><path d="M72,33c-5.92,0-9.87-3.38-9.9-8.43h6.21c0,2.1,1.64,3.14,3.93,3.14,1.77,0,3.35-.8,3.35-2.37s-2-2.1-4.53-2.52c-3.77-.63-8.56-1.64-8.56-7.19,0-4.47,3.8-7.55,9.49-7.55s9.42,3.17,9.45,7.88h-6c0-1.87-1.34-2.8-3.56-2.8-2,0-3.16.91-3.16,2.26,0,1.57,2,1.94,4.47,2.38,3.84.7,8.76,1.5,8.76,7.25,0,4.82-3.94,8-9.89,8Z" fill="blue"/><path d="M86.42,8.75H92.8V32.33H86.42Zm0-8.07h6.36V6.61H86.43Z" fill="blue"/><path d="M97,20.54c0-7.15,5.45-12.46,12.75-12.46s12.75,5.31,12.75,12.46S117,33,109.76,33,97,27.65,97,20.54Zm19,0A6.29,6.29,0,1,0,109.76,27a6.13,6.13,0,0,0,6.3-5.92c0-.18,0-.37,0-.55Z" fill="blue"/></svg>