<svg xmlns="http://www.w3.org/2000/svg" width="111.483" height="32.321" viewBox="0 0 111.483 32.321"><g transform="translate(-718.973 -784.181)"><path d="M723.173,807.982V797.893h-4.2V793.1h4.2v-5.707l5.568-.593v6.3h6.209v4.793H728.7v10.089c0,2.146,1.141,3.2,2.922,3.2a6.554,6.554,0,0,0,2.693-.685l1.553,4.748a11.956,11.956,0,0,1-5.068.959C726.14,816.2,723.173,813.461,723.173,807.982Z" transform="translate(0 0.119)" fill="blue"/><path d="M737.258,804.97V792.827h5.57v12.1c0,3.424,1.872,6.026,5.433,6.026,3.469,0,5.751-2.876,5.751-6.3V792.827h5.524v22.642h-4.975l-.366-2.83a9.873,9.873,0,0,1-7.624,3.379C741.23,816.018,737.258,811.909,737.258,804.97Z" transform="translate(0.829 0.392)" fill="blue"/><path d="M763.465,784.181h5.524v31.68h-5.524Z" transform="translate(2.017)" fill="blue"/><path d="M771.985,812.115l2.739-3.971a11.187,11.187,0,0,0,7.943,3.15c2.055,0,3.88-.867,3.88-2.466,0-1.505-1.231-2.373-4.473-2.556-4.2-.366-9.313-1.871-9.313-6.985,0-5.249,5.387-6.984,9.5-6.984,3.514,0,6.162.685,8.765,2.922l-3.1,3.652a7.781,7.781,0,0,0-5.57-2.009c-2.693,0-4.108.822-4.108,2.237,0,1.46,1.415,2.282,4.2,2.465,4.245.229,9.631,1.278,9.631,7.167,0,3.972-3.285,7.4-9.677,7.4C778.786,816.134,775.318,815.539,771.985,812.115Z" transform="translate(2.404 0.368)" fill="blue"/><path d="M794.435,792.827H800v22.642h-5.569Z" transform="translate(3.422 0.392)" fill="blue"/><path d="M803.042,804.17c0-6.436,4.565-11.823,11.733-11.823a11.5,11.5,0,0,1,11.869,11.823c0,6.574-4.474,11.87-11.823,11.87S803.042,810.744,803.042,804.17Zm17.9,0c0-3.378-2.373-6.665-6.116-6.665-4.018,0-6.118,3.288-6.118,6.665s2.055,6.665,6.118,6.665S820.937,807.548,820.937,804.17Z" transform="translate(3.812 0.37)" fill="blue"/></g></svg>